# xmcd CD database file
#
# Track frame offsets:
#	150
#	22261
#	38823
#	56672
#	78298
#	93539
#	112481
#
# Disc length: 1753 seconds
#
# Revision: 1
# Processed by: cddbd v1.5.2PL0 Copyright (c) Steve Scherf et al.
# Submitted via: CDex 1.79
#
DISCID=5e06d707
DTITLE=Zucchero Sugar Fornaciari - Oro Incenso and Birra [Unreleased Demo Version]
DYEAR=1989
DGENRE=Blues
TTITLE0=Overdose (D'Amore) - Demo Version
TTITLE1=Nice (Nietzsche) Che Dice - Demo Version
TTITLE2=Il Mare Impetuoso Al Tramonto Sali Sulla Luna E Dietro Una Tendina Di Stelle... - Demo Version
TTITLE3=Madre Dolcissima - Demo Version
TTITLE4=Diavolo In Me - Demo Version
TTITLE5=Iruben Me - Demo Version
TTITLE6=Diamante - Demo Version 
EXTD=YEAR: 1989
EXTT0=
EXTT1=
EXTT2=
EXTT3=
EXTT4=
EXTT5=
EXTT6=
PLAYORDER=
